<svg width="116" height="58" viewBox="0 0 116 58" fill="none" xmlns="http://www.w3.org/2000/svg">
<g filter="url(#filter0_d_39_2)">
<path d="M17.56 49.68C15.16 49.64 13.06 49.08 11.26 48C9.58 47 8.32 45.72 7.48 44.16C6.64 42.6 6.22 40.9 6.22 39.06C6.22 35.98 7.18 33.48 9.1 31.56C11.02 29.6 13.86 28.6 17.62 28.56C26.34 28.44 35.04 28.44 43.72 28.56C47.48 28.56 50.32 29.54 52.24 31.5C54.16 33.42 55.12 35.94 55.12 39.06C55.12 40.82 54.72 42.5 53.92 44.1C53.04 45.74 51.74 47.06 50.02 48.06C48.3 49.06 46.24 49.6 43.84 49.68C35.04 49.88 26.28 49.88 17.56 49.68ZM4.24 0.779998H27.58V8.76H31.3V0.119999H41.8V26.04H31.3V18.42H27.58V25.62H4.24V0.779998ZM20.92 12.9V10.5L10.9 14.1V16.5L20.92 12.9ZM43 37.62V35.58L18.22 40.08V42.12L43 37.62ZM44.44 0.119999H54.94V26.04H44.44V0.119999ZM93.8777 34.2V38.58H111.998V47.82H61.5977V38.58H80.6177V34.2H65.1977V1.02H108.158V9.72H77.3177L77.2577 13.38H107.558V21.72H77.2577V25.5H108.398L108.458 34.2H93.8777Z" fill="#97A9FF"/>
</g>
<defs>
<filter id="filter0_d_39_2" x="0.23999" y="0.119995" width="115.758" height="57.86" filterUnits="userSpaceOnUse" color-interpolation-filters="sRGB">
<feFlood flood-opacity="0" result="BackgroundImageFix"/>
<feColorMatrix in="SourceAlpha" type="matrix" values="0 0 0 0 0 0 0 0 0 0 0 0 0 0 0 0 0 0 127 0" result="hardAlpha"/>
<feOffset dy="4"/>
<feGaussianBlur stdDeviation="2"/>
<feComposite in2="hardAlpha" operator="out"/>
<feColorMatrix type="matrix" values="0 0 0 0 0.533333 0 0 0 0 0.556863 0 0 0 0 0.729412 0 0 0 0.25 0"/>
<feBlend mode="normal" in2="BackgroundImageFix" result="effect1_dropShadow_39_2"/>
<feBlend mode="normal" in="SourceGraphic" in2="effect1_dropShadow_39_2" result="shape"/>
</filter>
</defs>
</svg>
