<svg width="20" height="20" viewBox="0 0 20 20" fill="none" xmlns="http://www.w3.org/2000/svg">
<path d="M13.9062 2.8125C12.3367 2.8125 10.9438 3.43203 10 4.49688C9.05625 3.43203 7.66328 2.8125 6.09375 2.8125C4.72674 2.81415 3.41618 3.35793 2.44956 4.32456C1.48293 5.29118 0.939154 6.60174 0.9375 7.96875C0.9375 13.6203 9.20391 18.1359 9.55547 18.3258C9.69209 18.3994 9.84483 18.4379 10 18.4379C10.1552 18.4379 10.3079 18.3994 10.4445 18.3258C10.7961 18.1359 19.0625 13.6203 19.0625 7.96875C19.0608 6.60174 18.5171 5.29118 17.5504 4.32456C16.5838 3.35793 15.2733 2.81415 13.9062 2.8125ZM13.4773 13.9344C12.3893 14.8577 11.2261 15.6887 10 16.4188C8.77387 15.6887 7.61073 14.8577 6.52266 13.9344C4.82969 12.482 2.8125 10.2672 2.8125 7.96875C2.8125 7.09851 3.1582 6.26391 3.77356 5.64856C4.38891 5.0332 5.22351 4.6875 6.09375 4.6875C7.48438 4.6875 8.64844 5.42188 9.13203 6.60469C9.20242 6.77712 9.32257 6.92467 9.47715 7.02854C9.63174 7.13241 9.81376 7.18788 10 7.18788C10.1862 7.18788 10.3683 7.13241 10.5228 7.02854C10.6774 6.92467 10.7976 6.77712 10.868 6.60469C11.3516 5.42188 12.5156 4.6875 13.9062 4.6875C14.7765 4.6875 15.6111 5.0332 16.2264 5.64856C16.8418 6.26391 17.1875 7.09851 17.1875 7.96875C17.1875 10.2672 15.1703 12.482 13.4773 13.9344Z" fill="#939799"/>
</svg>
